<svg xmlns="http://www.w3.org/2000/svg" viewBox="0 0 512 512">
  <path fill-rule="nonzero" d="M453.7,256l52.87,-76.18c5.922,-8.529 7.062,-19.34 3.094,-28.9c-3.969,-9.561 -12.42,-16.37 -22.61,-18.22l-91.26,-16.5l-16.48,-91.24c-1.859,-10.22 -8.672,-18.65 -18.25,-22.62c-9.531,-3.969 -20.34,-2.781 -28.88,3.094l-76.184,52.896l-76.2,-52.875c-8.5,-5.906 -19.25,-7.125 -28.84,-3.125c-9.56,3.969 -16.46,12.4 -18.26,22.62l-16.5,91.25l-91.25,16.5c-10.2,1.8 -18.649,8.7 -22.618,18.2c-3.969,9.6 -2.828,20.4 3.094,28.9l52.874,76.2l-52.87,76.18c-5.922,8.531 -7.062,19.34 -3.094,28.9c3.968,9.56 12.42,16.37 22.61,18.22l91.26,16.5l16.48,91.24c1.859,10.22 8.688,18.65 18.27,22.62c3.75,1.562 7.688,2.312 11.59,2.312c6.078,0 12.08,-1.844 17.25,-5.406l76.204,-52.866l76.2,52.87c8.5,5.906 19.25,7.125 28.84,3.125c9.578,-3.969 16.41,-12.41 18.27,-22.62l16.48,-91.24l91.25,-16.5c10.2,-1.844 18.66,-8.654 22.62,-18.22c3.96,-9.566 2.828,-20.37 -3.094,-28.9l-52.866,-76.215Zm-74.5,110.3c-6.578,1.188 -11.72,6.344 -12.91,12.9l-15.83,101.1l-85.33,-59.21c-5.5,-3.812 -12.75,-3.812 -18.25,-0l-82.69,60.31l-18.49,-102.2c-1.188,-6.561 -6.328,-11.72 -12.91,-12.9l-101.1,-15.84l59.2,-85.31c3.812,-5.498 3.812,-12.75 0,-18.25l-60.28,-82.68l102.2,-18.47c6.59,-1.25 11.69,-6.35 12.89,-12.95l15.83,-101.1l85.33,59.21c5.5,3.811 12.75,3.811 18.25,-0l82.69,-60.31l18.47,102.2c1.188,6.562 6.328,11.72 12.91,12.91l101.1,15.84l-59.2,85.31c-3.812,5.5 -3.812,12.75 -0,18.25l57.7,83.15l-99.58,18.04Z"/>
</svg>
